<svg width="50" height="50" viewBox="0 0 50 50" fill="none" xmlns="http://www.w3.org/2000/svg">
<path d="M47.0149 0H19.9851C18.3365 0 17 1.3365 17 2.98512V30.0148C17 31.6635 18.3365 33 19.9851 33H47.0148C48.6635 33 50 31.6635 50 30.0148V2.98512C50 1.3365 48.6635 0 47.0149 0ZM27.2116 28.4944C27.2116 28.9742 26.8227 29.3631 26.3429 29.3631H22.645C22.1652 29.3631 21.7763 28.9742 21.7763 28.4944V12.9929C21.7763 12.5131 22.1652 12.1242 22.645 12.1242H26.3429C26.8227 12.1242 27.2116 12.5131 27.2116 12.9929V28.4944ZM24.4939 10.663C22.5538 10.663 20.9809 9.09012 20.9809 7.14994C20.9809 5.20977 22.5538 3.63691 24.4939 3.63691C26.4341 3.63691 28.007 5.20977 28.007 7.14994C28.007 9.09012 26.4342 10.663 24.4939 10.663ZM46.5367 28.5643C46.5367 29.0054 46.1791 29.3631 45.738 29.3631H41.7699C41.3288 29.3631 40.9711 29.0054 40.9711 28.5643V21.2933C40.9711 20.2086 41.2893 16.5402 38.1365 16.5402C35.691 16.5402 35.1949 19.0511 35.0953 20.1779V28.5643C35.0953 29.0054 34.7378 29.3631 34.2966 29.3631H30.4587C30.0176 29.3631 29.66 29.0054 29.66 28.5643V12.923C29.66 12.4819 30.0176 12.1242 30.4587 12.1242H34.2966C34.7377 12.1242 35.0953 12.4819 35.0953 12.923V14.2754C36.0021 12.9145 37.3498 11.8641 40.2191 11.8641C46.5731 11.8641 46.5367 17.8003 46.5367 21.0619V28.5643Z" fill="black"/>
</svg>
