<svg width="50" height="50" viewBox="0 0 50 50" fill="none" xmlns="http://www.w3.org/2000/svg">
<path d="M23.1691 0H9.83088C4.41011 0 0 4.41011 0 9.83088V23.1691C0 28.5899 4.41011 33 9.83088 33H23.1691C28.5899 33 33 28.5899 33 23.1691V9.83088C32.9999 4.41011 28.5898 0 23.1691 0ZM29.6802 23.1691C29.6802 26.7651 26.7651 29.6802 23.1691 29.6802H9.83088C6.23494 29.6802 3.3198 26.7651 3.3198 23.1691V9.83088C3.3198 6.23488 6.23494 3.3198 9.83088 3.3198H23.1691C26.7651 3.3198 29.6802 6.23488 29.6802 9.83088V23.1691Z" fill="black"/>
<path d="M16.5003 7.96484C11.7941 7.96484 7.96533 11.7936 7.96533 16.4998C7.96533 21.2059 11.7941 25.0347 16.5003 25.0347C21.2065 25.0347 25.0353 21.206 25.0353 16.4998C25.0353 11.7936 21.2065 7.96484 16.5003 7.96484ZM16.5003 21.715C13.62 21.715 11.2851 19.3801 11.2851 16.4998C11.2851 13.6195 13.6201 11.2846 16.5003 11.2846C19.3806 11.2846 21.7155 13.6195 21.7155 16.4998C21.7155 19.38 19.3805 21.715 16.5003 21.715Z" fill="black"/>
<path d="M25.0514 10.0736C26.1809 10.0736 27.0965 9.15797 27.0965 8.02849C27.0965 6.89902 26.1809 5.9834 25.0514 5.9834C23.922 5.9834 23.0063 6.89902 23.0063 8.02849C23.0063 9.15797 23.922 10.0736 25.0514 10.0736Z" fill="black"/>
</svg>
